<svg width="200" height="88" viewBox="0 0 200 88" fill="none" xmlns="http://www.w3.org/2000/svg"><path d="M78.965 48.542c3.944 0 6.563-1.83 6.563-4.985 0-3.167-2.603-4.158-5.1-4.903l-.288-.085c-2.2-.646-4.236-1.156-4.236-2.87 0-1.356 1.104-2.208 3.029-2.208 1.672 0 2.871.694 3.408 2.177l2.556-1.01c-.726-2.208-2.903-3.439-5.933-3.439-3.66 0-6.026 1.767-6.026 4.639 0 5.711 9.56 3.912 9.56 7.92 0 1.546-1.356 2.43-3.439 2.43-2.303 0-3.85-1.01-4.386-2.714l-2.556 1.01c.884 2.65 3.408 4.038 6.847 4.038zm24.57 5.302V31.566h-2.493v3.092c-1.325-2.145-3.534-3.439-6.31-3.439-4.734 0-8.11 3.724-8.11 8.678 0 4.954 3.47 8.645 8.172 8.645 2.62 0 4.734-1.167 6.059-3.092v8.394h2.682zm-8.425-7.668c-3.345 0-5.838-2.682-5.838-6.28 0-3.628 2.493-6.31 5.838-6.31 3.44 0 5.838 2.619 5.838 6.31 0 3.693-2.367 6.28-5.838 6.28zm18.26 2.366c2.461 0 4.449-1.167 5.553-2.713v2.366h2.556V31.566h-2.682v10.445c-.032 2.114-1.925 4.133-4.733 4.133-2.84.032-4.639-1.83-4.639-4.638v-9.94h-2.682v10.255c0 3.945 2.367 6.721 6.627 6.721zm18.669 0c2.809 0 4.986-1.325 6.248-3.534v3.187h2.493V31.566h-2.493v3.219c-1.262-2.146-3.439-3.408-6.248-3.408-4.701 0-8.172 3.566-8.172 8.488 0 4.986 3.439 8.677 8.172 8.677zm.316-2.366c-3.345 0-5.838-2.682-5.838-6.311 0-3.566 2.493-6.28 5.838-6.28 3.471 0 5.838 2.588 5.838 6.28 0 3.724-2.399 6.31-5.838 6.31zm14.536 2.02V38.16c0-2.367 2.114-4.418 5.144-4.45v-2.49a6.459 6.459 0 00-5.302 2.777v-2.43h-2.524v16.63h2.682zm13.495.378c3.944 0 6.248-1.704 7.478-4.07l-2.335-1.42c-.82 1.924-2.335 2.966-5.048 2.966-3.061 0-5.491-2.083-5.964-5.175h13.821c.031-.316.063-.884.063-1.357 0-4.386-3.187-8.33-8.204-8.33-4.702 0-8.394 3.88-8.394 8.709 0 4.954 3.471 8.677 8.583 8.677zm5.27-10.034h-11.108c.505-3.156 2.935-5.017 5.743-5.017 2.777 0 4.954 1.893 5.365 5.017zm-54.967 19.812c.087 0 .178-.006.274-.017.096-.011.201-.028.314-.05v-.288h-.066c-.313 0-.537-.038-.67-.113-.133-.075-.238-.217-.314-.424a4.301 4.301 0 01-.14-.523c-.06-.262-.131-.462-.215-.597a.943.943 0 00-.303-.309 1.705 1.705 0 00-.477-.201c.407-.09.712-.239.917-.45.204-.21.307-.48.307-.808 0-.46-.149-.803-.448-1.026-.298-.223-.756-.334-1.375-.334h-1.931v.303l.429.044.13.107v4.172l-.13.107-.429.037v.31h1.801v-.31l-.432-.037-.13-.108v-1.8l.026-.004a8.79 8.79 0 01.355-.011c.348 0 .607.059.779.177.171.119.307.332.408.64.027.081.063.205.107.37.119.458.268.766.448.924a.824.824 0 00.316.165c.124.036.274.053.449.053zm-2.47-2.674a10.643 10.643 0 01-.418-.007v-2.112h.366c.491 0 .846.085 1.065.255.22.17.329.444.329.821 0 .365-.106.63-.319.795-.214.165-.554.248-1.023.248zm4.429 2.68c.244 0 .487-.037.729-.114.241-.076.474-.188.698-.336v-.418c-.226.15-.437.261-.63.333-.194.071-.38.107-.56.107-.39 0-.699-.139-.928-.416-.23-.277-.344-.654-.344-1.13V56.3h2.451a.889.889 0 00.01-.092l.001-.14c0-.462-.122-.826-.367-1.093-.246-.268-.578-.402-.997-.402-.513 0-.932.18-1.259.538-.327.359-.49.822-.49 1.389 0 .552.156 1 .468 1.344.312.344.718.516 1.218.516zm.751-2.377h-1.749c.022-.308.125-.563.308-.763a.858.858 0 01.653-.302c.257 0 .452.082.586.244.135.163.202.397.202.703v.118zm2.036 2.363c.178 0 .368-.04.572-.12a3.45 3.45 0 00.671-.372l.1.44h1.065v-.273l-.4-.037-.129-.122v-2.197c0-.382-.09-.66-.27-.832-.18-.172-.469-.259-.865-.259-.452 0-.82.082-1.104.244-.285.163-.427.368-.427.614 0 .089.016.15.05.183.033.034.095.05.186.05h.522v-.636c.101-.04.198-.069.292-.089.093-.02.188-.03.285-.03.256 0 .436.063.539.186.104.123.156.344.156.662v.24c-.944.227-1.549.433-1.814.617a.88.88 0 00-.398.762c0 .291.089.525.265.703.176.177.411.266.704.266zm.303-.407a.588.588 0 01-.441-.168.62.62 0 01-.165-.453c0-.237.099-.428.298-.573.198-.146.614-.306 1.248-.48v1.334a3.69 3.69 0 01-.531.255c-.154.057-.29.085-.409.085zm3.982.355v-.273l-.433-.037-.136-.122v-5.14h-.289l-.924.27v.236h.584v4.634l-.129.122-.448.037v.273h1.775zm5.9 0v-1.235h-.392l-.13.766-.107.122h-2.03v-2.123h1.243l.107.115.074.547h.358v-1.668h-.358l-.074.551-.107.108h-1.243v-1.916h1.753l.103.115.108.643h.425v-1.105h-3.628v.303l.429.044.13.107v4.172l-.13.107-.429.037v.31h3.898zm1.263.067c.444 0 .791-.1 1.041-.302.251-.2.376-.478.376-.833a.919.919 0 00-.074-.372.723.723 0 00-.215-.28c-.128-.105-.335-.224-.621-.354a5.848 5.848 0 01-.181-.085c-.252-.121-.422-.23-.51-.33a.517.517 0 01-.134-.358c0-.173.056-.307.167-.403.111-.096.265-.144.462-.144.091 0 .182.013.274.04.091.027.187.068.288.122l.059.537h.374v-.858a2.052 2.052 0 00-.413-.124 2.494 2.494 0 00-.475-.043c-.426 0-.757.093-.991.278-.234.185-.351.446-.351.784 0 .221.068.408.205.558.137.15.395.31.775.48.335.154.547.28.636.38.089.1.133.226.133.379 0 .182-.065.33-.194.442-.13.112-.301.168-.516.168-.108 0-.216-.015-.323-.044a1.341 1.341 0 01-.32-.137l-.093-.644h-.362v.984c.14.054.294.094.46.12.167.026.341.039.523.039zm2.928-.044c.155 0 .317-.015.485-.043.167-.028.337-.07.51-.124v-.28a2.278 2.278 0 01-.525.062c-.237 0-.401-.056-.492-.168-.091-.112-.137-.333-.137-.66v-1.997h1.154v-.355h-1.154v-.806h-.281l-.325.706-.5.218v.237h.477v2.444c0 .291.059.491.176.601.117.11.321.165.612.165zm2.111.03c.177 0 .368-.041.571-.121a3.45 3.45 0 00.671-.372l.1.44h1.065v-.273l-.4-.037-.129-.122v-2.197c0-.382-.09-.66-.27-.832-.18-.172-.468-.259-.865-.259-.451 0-.819.082-1.104.244-.285.163-.427.368-.427.614 0 .089.017.15.05.183.033.034.095.05.187.05h.521v-.636c.101-.04.198-.069.292-.089.094-.02.189-.03.285-.03.256 0 .436.063.54.186.103.123.155.344.155.662v.24c-.944.227-1.549.433-1.814.617a.88.88 0 00-.397.762c0 .291.088.525.264.703.176.177.411.266.705.266zm.303-.408a.59.59 0 01-.442-.168.62.62 0 01-.165-.453c0-.237.1-.428.298-.573.198-.146.614-.306 1.248-.48v1.334a3.69 3.69 0 01-.531.255c-.154.057-.29.085-.408.085zm3.449.378c.155 0 .317-.015.484-.043a3.86 3.86 0 00.511-.124v-.28a2.314 2.314 0 01-.526.062c-.236 0-.4-.056-.491-.168-.092-.112-.137-.333-.137-.66v-1.997h1.154v-.355h-1.154v-.806h-.281l-.326.706-.499.218v.237h.477v2.444c0 .291.059.491.176.601.117.11.321.165.612.165zm2.791.044c.244 0 .487-.038.728-.115.242-.076.475-.188.699-.336v-.418c-.227.15-.437.261-.63.333a1.62 1.62 0 01-.561.107c-.389 0-.699-.139-.928-.416-.229-.277-.344-.654-.344-1.13V56.3h2.452a.682.682 0 00.009-.092l.002-.14c0-.462-.123-.826-.368-1.093-.245-.268-.577-.402-.996-.402-.513 0-.933.18-1.26.538-.326.359-.489.822-.489 1.389 0 .552.155 1 .467 1.344.312.344.718.516 1.219.516zm.75-2.378h-1.749c.022-.308.125-.563.309-.763a.857.857 0 01.653-.302c.256 0 .451.082.586.244.134.163.201.397.201.703v.118zm4.421 2.404c.592 0 1.066-.14 1.424-.42.357-.28.536-.648.536-1.104 0-.165-.028-.318-.083-.458a1.07 1.07 0 00-.25-.374c-.195-.192-.513-.374-.954-.547a8.726 8.726 0 01-.189-.074c-.448-.19-.737-.352-.867-.486a.705.705 0 01-.194-.509c0-.28.093-.503.277-.667.185-.164.436-.246.751-.246.133 0 .256.013.37.039.113.026.218.066.314.12l.111.126.115.72h.395v-1.171a4.596 4.596 0 00-.652-.161 3.857 3.857 0 00-.638-.054c-.528 0-.951.134-1.27.401-.32.268-.479.618-.479 1.052 0 .308.084.56.251.753.168.193.511.402 1.028.627l.181.077c.725.308 1.088.656 1.088 1.043 0 .279-.103.5-.309.664-.206.164-.485.246-.838.246-.167 0-.323-.015-.466-.045a1.48 1.48 0 01-.38-.13l-.1-.129-.089-.868h-.448v1.33c.18.08.387.14.62.182.233.042.481.063.745.063zm4.178-.026c.512 0 .934-.177 1.266-.53.332-.355.497-.809.497-1.363 0-.555-.165-1.01-.495-1.363-.33-.354-.753-.53-1.268-.53-.518 0-.94.176-1.267.528-.327.353-.49.807-.49 1.365 0 .557.165 1.012.494 1.364.329.353.75.529 1.263.529zm0-.326c-.314 0-.566-.142-.759-.427-.192-.284-.288-.665-.288-1.14 0-.476.096-.856.287-1.141.191-.285.444-.427.76-.427.315 0 .57.143.763.429.194.286.29.665.29 1.139 0 .478-.096.859-.288 1.142-.192.284-.447.425-.765.425zm3.778.26v-.274l-.433-.037-.137-.122v-5.14h-.288l-.925.27v.236h.585v4.634l-.13.122-.447.037v.273h1.775zm1.648.073c.18 0 .37-.04.571-.122a3.22 3.22 0 00.657-.377v.425h1.12v-.273l-.355-.037-.137-.122v-3.288h-.288l-.88.281v.237h.54v2.566a2.443 2.443 0 01-.453.17 1.72 1.72 0 01-.427.056c-.252 0-.437-.065-.555-.194-.118-.13-.178-.333-.178-.609v-2.507h-.288l-.88.281v.237h.54v2.119c0 .375.087.661.26.86.174.198.425.297.753.297zm3.76-.051c.155 0 .316-.015.484-.043a3.81 3.81 0 00.51-.124v-.28a2.263 2.263 0 01-.525.062c-.236 0-.4-.056-.492-.168-.091-.112-.136-.333-.136-.66v-1.997h1.153v-.355h-1.153v-.806h-.281l-.326.706-.499.218v.237h.477v2.444c0 .291.059.491.176.601.117.11.321.165.612.165zm1.988-4.512a.431.431 0 00.44-.432.426.426 0 00-.127-.311.425.425 0 00-.313-.13.42.42 0 00-.309.128.424.424 0 00-.127.313c0 .12.042.223.127.306a.424.424 0 00.309.126zm.802 4.49v-.274l-.406-.037-.13-.122v-3.247h-.296l-.869.27v.237h.529v2.74l-.129.122-.4.037v.273h1.701zm1.937.066c.513 0 .935-.177 1.267-.53.331-.355.497-.809.497-1.363 0-.555-.165-1.01-.496-1.363-.33-.354-.753-.53-1.268-.53-.518 0-.94.176-1.266.528-.327.353-.49.807-.49 1.365 0 .557.164 1.012.493 1.364.329.353.75.529 1.263.529zm0-.326c-.313 0-.566-.142-.758-.427-.192-.284-.288-.665-.288-1.14 0-.476.095-.856.286-1.141.191-.285.445-.427.76-.427.316 0 .57.143.764.429.193.286.29.665.29 1.139 0 .478-.096.859-.288 1.142-.193.284-.448.425-.766.425zm3.678.26v-.274l-.362-.037-.129-.122v-2.537a2.55 2.55 0 01.454-.187c.141-.04.272-.06.392-.06.277 0 .473.058.59.177.117.118.176.319.176.602v2.005l-.13.122-.362.037v.273h1.657v-.273l-.407-.037-.129-.122v-2.134c0-.375-.088-.66-.263-.858-.175-.197-.428-.296-.758-.296a1.44 1.44 0 00-.488.102 5.59 5.59 0 00-.732.353v-.414h-.289l-.88.27v.237h.54v2.74l-.129.122-.411.037v.273h1.66z" fill="#fff"/><path fill-rule="evenodd" clip-rule="evenodd" d="M31 28h31.555v31.555H31V28zm23.485 8.07l-15.417-.002v15.418l-.005.005v.001h15.429l-.001-15.428-.006.005z" fill="#fff"/></svg>