<svg width="199" height="88" viewBox="0 0 199 88" fill="none" xmlns="http://www.w3.org/2000/svg"><path d="M78.738 49.781v-9.493h2.194c1.647 0 3.05-.59 4.208-1.767 1.16-1.177 1.74-2.594 1.74-4.25v-3.656c0-1.72-.511-3.137-1.533-4.25-1.094-1.169-2.566-1.753-4.415-1.753h-5.975v25.17h3.78zm2.29-13.247h-2.29V28.49h2.29c.663 0 1.19.2 1.58.6.391.4.587.931.587 1.594v3.67c0 .598-.21 1.111-.628 1.539a2.07 2.07 0 01-1.539.641zm11.878 13.247L93.831 44h3.96l.897 5.782h3.974l-4.209-25.169h-5.23l-4.263 25.17h3.946zm4.32-9.48H94.41l1.408-9.92 1.407 9.92zm13.905 9.48v-9.493h2.194c1.647 0 3.05-.59 4.209-1.767 1.159-1.177 1.739-2.594 1.739-4.25v-3.656c0-1.72-.511-3.137-1.532-4.25-1.095-1.169-2.567-1.753-4.416-1.753h-5.975v25.17h3.781zm2.291-13.247h-2.291V28.49h2.291c.662 0 1.189.2 1.58.6.391.4.586.931.586 1.594v3.67a2.12 2.12 0 01-.628 1.539 2.067 2.067 0 01-1.538.641zm21.164 13.247v-3.795h-7.01v-6.885h5.12v-3.809h-5.12v-6.885h7.01v-3.795h-10.79v25.17h10.79zm7.89 0v-9.493h2.18c.12 0 .235-.005.345-.014l2.318 9.507h4.099l-2.815-10.998c1.352-1.223 2.028-2.727 2.028-4.512v-3.656c0-1.813-.437-3.23-1.311-4.25-.984-1.169-2.534-1.753-4.65-1.753h-5.975v25.17h3.781zm2.291-13.247h-2.291V28.49h2.291c1.444 0 2.166.731 2.166 2.194v3.67a2.12 2.12 0 01-.628 1.539 2.067 2.067 0 01-1.538.641zm22.24 13.247v-3.767h-6.982l6.982-17.607v-3.795h-11.066v3.795h6.996l-6.996 17.607v3.767h11.066zm-89.248 12.89v-.553h-2.74v-5.533h-.67v6.086h3.41zm2.525.143c.44 0 .821-.088 1.142-.263.322-.176.58-.418.777-.727l-.482-.322a1.544 1.544 0 01-.567.558c-.235.134-.53.2-.888.2-.44 0-.788-.15-1.044-.454a1.809 1.809 0 01-.42-1.098h3.436c.007-.06.01-.146.01-.259a2.2 2.2 0 00-.26-1.066 1.956 1.956 0 00-.713-.754 1.92 1.92 0 00-1.018-.277c-.398 0-.754.095-1.066.286-.312.19-.556.455-.732.794a2.474 2.474 0 00-.263 1.151c0 .428.09.812.268 1.151.178.34.425.604.74.794.316.19.676.286 1.08.286zm1.357-2.606h-2.803c.066-.375.222-.685.469-.932.247-.247.564-.37.95-.37.399 0 .714.108.946.325.232.217.378.543.438.977zm3.32 2.606c.297 0 .57-.067.82-.2.25-.135.462-.32.634-.558v.615h.607v-4.176h-.607v.625a1.755 1.755 0 00-1.473-.768c-.398 0-.754.095-1.066.286-.312.19-.556.453-.732.79a2.44 2.44 0 00-.263 1.146c0 .434.09.821.268 1.16.178.34.425.604.74.794.316.19.673.286 1.071.286zm-.019-.553c-.28 0-.529-.072-.75-.214a1.455 1.455 0 01-.517-.598 1.969 1.969 0 01-.187-.875c0-.321.062-.608.187-.861s.298-.45.518-.593c.22-.143.47-.215.75-.215a1.384 1.384 0 011.285.812c.125.256.187.545.187.866 0 .321-.063.61-.187.866a1.384 1.384 0 01-1.285.812zm5.025.553c.297 0 .57-.067.82-.2.25-.135.462-.32.634-.558v.615h.607v-6.479h-.607v2.928a1.755 1.755 0 00-1.472-.768c-.399 0-.754.095-1.067.286-.312.19-.556.453-.731.79a2.44 2.44 0 00-.263 1.146c0 .434.089.821.267 1.16.179.34.426.604.74.794.316.19.673.286 1.072.286zm-.018-.553c-.28 0-.53-.072-.75-.214a1.456 1.456 0 01-.517-.598 1.969 1.969 0 01-.188-.875c0-.321.063-.608.188-.861s.297-.45.517-.593c.22-.143.47-.215.75-.215a1.385 1.385 0 011.285.812c.125.256.187.545.187.866 0 .321-.062.61-.187.866a1.385 1.385 0 01-1.285.812zm3.837-4.578a.467.467 0 00.34-.143.463.463 0 00.142-.34.46.46 0 00-.143-.343.47.47 0 00-.339-.138.467.467 0 00-.343.138.456.456 0 00-.139.335.482.482 0 00.482.49zm.304 4.988v-4.176h-.607v4.176h.607zm2.061 0v-2.088c0-.512.107-.92.322-1.223.214-.303.535-.455.963-.455.738 0 1.107.414 1.107 1.24v2.526h.607v-2.793a1.51 1.51 0 00-.219-.821 1.4 1.4 0 00-.589-.526 1.836 1.836 0 00-.808-.179c-.309 0-.581.073-.816.219a1.592 1.592 0 00-.567.62v-.696h-.607v4.176h.607zm6.229 1.785c.357 0 .675-.083.955-.25.28-.166.497-.397.652-.691.154-.295.232-.63.232-1.004v-4.016h-.607v.625a1.756 1.756 0 00-1.473-.768c-.398 0-.754.095-1.066.286a1.98 1.98 0 00-.732.79 2.447 2.447 0 00-.263 1.146c0 .434.089.821.268 1.16.178.34.425.604.74.794.316.19.673.286 1.071.286.298 0 .571-.067.821-.2.25-.135.461-.32.634-.558v.455c0 .404-.115.737-.344 1a1.125 1.125 0 01-.888.392h-1.731v.553h1.731zm-.241-2.195c-.279 0-.529-.072-.749-.214a1.457 1.457 0 01-.518-.598 1.967 1.967 0 01-.187-.875c0-.321.062-.608.187-.861s.298-.45.518-.593c.22-.143.47-.215.749-.215a1.383 1.383 0 011.285.812c.125.256.188.545.188.866 0 .321-.063.61-.188.866a1.383 1.383 0 01-1.285.812zm6.015.41v-2.329h1.294c.565 0 1.019-.166 1.361-.5.342-.333.513-.79.513-1.374 0-.589-.163-1.05-.491-1.383-.327-.333-.764-.5-1.311-.5h-2.035v6.086h.669zm1.276-2.882h-1.276v-2.65h1.276c.399 0 .702.112.911.338.208.227.312.557.312.991 0 .434-.104.763-.312.986-.209.223-.512.335-.911.335zm4.498 3.025c.297 0 .571-.067.821-.2.25-.135.461-.32.634-.558v.615h.606v-4.176h-.606v.625a1.756 1.756 0 00-1.473-.768 1.967 1.967 0 00-1.798 1.075 2.435 2.435 0 00-.263 1.147c0 .434.089.821.267 1.16a1.986 1.986 0 001.812 1.08zm-.018-.553c-.279 0-.529-.072-.749-.214a1.45 1.45 0 01-.518-.598 1.967 1.967 0 01-.187-.875c0-.321.062-.608.187-.861s.297-.45.518-.593c.22-.143.47-.215.749-.215a1.383 1.383 0 011.285.812c.125.256.188.545.188.866 0 .321-.063.61-.188.866a1.383 1.383 0 01-1.285.812zm3.82 2.195v-2.41a1.756 1.756 0 001.472.768 2.01 2.01 0 001.067-.285 1.97 1.97 0 00.731-.79c.176-.336.264-.719.264-1.147 0-.434-.09-.821-.268-1.16a1.988 1.988 0 00-.741-.794 2.03 2.03 0 00-1.071-.286c-.297 0-.571.067-.821.2-.25.135-.461.32-.633.559v-.616h-.607v5.961h.607zm1.472-2.195a1.386 1.386 0 01-1.285-.812 1.946 1.946 0 01-.187-.866c0-.321.062-.61.187-.866a1.386 1.386 0 011.285-.812c.28 0 .53.072.75.215.22.142.392.342.517.597.125.256.188.548.188.875 0 .321-.063.608-.188.861s-.297.45-.517.594c-.22.142-.47.214-.75.214zm4.748.553c.44 0 .821-.088 1.142-.263a2.1 2.1 0 00.776-.727l-.481-.322a1.546 1.546 0 01-.567.558c-.235.134-.531.2-.888.2-.44 0-.788-.15-1.044-.454a1.81 1.81 0 01-.42-1.098h3.436a2.78 2.78 0 00.009-.259c0-.392-.086-.748-.259-1.066a1.948 1.948 0 00-.714-.754 1.917 1.917 0 00-1.017-.277 2 2 0 00-1.066.286 1.96 1.96 0 00-.732.794 2.461 2.461 0 00-.263 1.151c0 .428.089.812.267 1.151.179.34.426.604.741.794.315.19.675.286 1.08.286zm1.356-2.606h-2.802c.066-.375.222-.685.469-.932.247-.247.563-.37.95-.37.399 0 .714.108.946.325.232.217.378.543.437.977zm2.106 2.463v-1.999c0-.369.067-.688.201-.96.134-.27.311-.477.531-.62.22-.142.458-.213.714-.213a.95.95 0 01.411.089v-.554a1.347 1.347 0 00-.411-.062c-.309 0-.587.086-.834.259a1.967 1.967 0 00-.612.723v-.84h-.606v4.177h.606zm6.818.143c.488 0 .909-.122 1.263-.366.354-.244.638-.598.852-1.062l-.562-.339c-.202.399-.421.692-.656.88-.235.187-.563.28-.986.28a1.38 1.38 0 01-.892-.308c-.256-.205-.452-.5-.589-.888-.137-.386-.206-.844-.206-1.374 0-.809.151-1.441.451-1.896.301-.455.716-.683 1.245-.683.369 0 .681.076.937.228.256.151.479.403.669.754l.536-.313a2.281 2.281 0 00-.843-.941c-.36-.223-.793-.335-1.299-.335-.494 0-.921.127-1.281.38-.359.252-.636.618-.829 1.097-.194.479-.291 1.052-.291 1.718 0 .66.1 1.227.299 1.7.2.473.485.836.857 1.089s.814.38 1.325.38zm4.81 0c.399 0 .755-.095 1.067-.285.312-.19.556-.456.732-.795.175-.339.263-.723.263-1.151 0-.428-.089-.812-.268-1.151a1.986 1.986 0 00-.74-.794 2.034 2.034 0 00-1.071-.286 2.01 2.01 0 00-1.067.286 1.98 1.98 0 00-.732.79 2.447 2.447 0 00-.263 1.146c0 .428.089.814.268 1.156a1.974 1.974 0 001.811 1.084zm-.017-.553c-.28 0-.53-.072-.75-.214a1.457 1.457 0 01-.518-.598 1.967 1.967 0 01-.187-.875c0-.321.062-.608.187-.861s.298-.45.518-.593c.22-.143.47-.215.75-.215a1.386 1.386 0 011.285.812c.125.256.187.545.187.866 0 .321-.062.61-.187.866a1.386 1.386 0 01-1.285.812zm3.542.41v-2.088c0-.512.091-.92.273-1.223.181-.303.453-.455.816-.455a.82.82 0 01.652.29c.166.194.25.51.25.95v2.526h.606v-2.356c.03-.434.136-.778.317-1.03a.886.886 0 01.763-.38.82.82 0 01.652.29c.166.194.25.51.25.95v2.526h.606v-2.793c0-.476-.128-.85-.383-1.12a1.27 1.27 0 00-.964-.406c-.298 0-.559.083-.785.25a1.677 1.677 0 00-.536.696 1.277 1.277 0 00-.473-.7 1.319 1.319 0 00-.794-.246c-.274 0-.516.068-.727.205a1.553 1.553 0 00-.523.59v-.652h-.606v4.176h.606zm6.881 1.785v-2.41a1.756 1.756 0 001.472.768c.399 0 .755-.095 1.067-.285a1.98 1.98 0 00.732-.79c.175-.336.263-.719.263-1.147 0-.434-.089-.821-.268-1.16a1.981 1.981 0 00-1.811-1.08c-.298 0-.572.067-.821.2-.25.135-.461.32-.634.559v-.616h-.607v5.961h.607zm1.472-2.195c-.285 0-.539-.072-.763-.214a1.445 1.445 0 01-.522-.598 1.946 1.946 0 01-.187-.866c0-.321.062-.61.187-.866a1.388 1.388 0 011.285-.812c.28 0 .53.072.75.215.22.142.393.342.518.597.125.256.187.548.187.875 0 .321-.062.608-.187.861s-.298.45-.518.594c-.22.142-.47.214-.75.214zm4.739.553c.298 0 .571-.067.821-.2.25-.135.461-.32.634-.558v.615h.607v-4.176h-.607v.625a1.756 1.756 0 00-1.473-.768c-.398 0-.754.095-1.066.286a1.98 1.98 0 00-.732.79 2.447 2.447 0 00-.263 1.146c0 .434.089.821.268 1.16.178.34.425.604.74.794.316.19.673.286 1.071.286zm-.018-.553c-.279 0-.529-.072-.749-.214a1.457 1.457 0 01-.518-.598 1.967 1.967 0 01-.187-.875c0-.321.062-.608.187-.861s.298-.45.518-.593c.22-.143.47-.215.749-.215a1.383 1.383 0 011.285.812c.125.256.188.545.188.866 0 .321-.063.61-.188.866a1.383 1.383 0 01-1.285.812zm3.811.41v-2.088c0-.512.107-.92.321-1.223.214-.303.536-.455.964-.455.738 0 1.107.414 1.107 1.24v2.526h.606v-2.793a1.51 1.51 0 00-.218-.821 1.401 1.401 0 00-.589-.526 1.836 1.836 0 00-.808-.179c-.309 0-.581.073-.816.219a1.594 1.594 0 00-.567.62v-.696h-.607v4.176h.607zm5.372 1.785l2.258-5.961h-.571l-1.33 3.462-1.383-3.462h-.634l1.714 4.257-.661 1.704h.607z" fill="#fff"/><path fill-rule="evenodd" clip-rule="evenodd" d="M53.319 30.444v28.953c-2.291 1.411-5.019 2.573-8.032 3.336-2.489.631-4.934.929-7.22.929-2.203 0-4.259-.277-6.067-.801V33.908h.004c.673.196 1.38.356 2.118.481a24.248 24.248 0 003.945.321c2.287 0 4.731-.299 7.22-.929 3.013-.764 5.74-1.925 8.032-3.337zm-4.237 6.647c-.179.061-.359.12-.54.18l.54-.001v-.179z" fill="#fff"/><path fill-rule="evenodd" clip-rule="evenodd" d="M61.253 24v31.978c-2.558 1.558-5.602 2.842-8.966 3.684-2.778.697-5.508 1.026-8.059 1.026-2.46 0-4.754-.306-6.773-.885V27.826h.004c.752.215 1.541.393 2.364.531a27.233 27.233 0 004.405.354c2.553 0 5.281-.33 8.059-1.026 3.364-.843 6.408-2.126 8.966-3.685z" fill="#fff"/></svg>