<svg width="200" height="88" viewBox="0 0 200 88" fill="none" xmlns="http://www.w3.org/2000/svg"><path opacity=".5" d="M61.861 37.139l-9.595 5.52-9.57-5.52 9.57-5.54 9.595 5.54z" fill="#fff"/><path d="M50.132 43.885l-8.509 4.916V38.97l8.51 4.916z" fill="#fff"/><path opacity=".5" d="M61.86 50.632l-9.576 5.54-9.594-5.54 9.594-5.515 9.576 5.515z" fill="#fff"/><path d="M39.822 52.156l11.665 6.723a1.65 1.65 0 001.644 0l11.718-6.757a1.633 1.633 0 000-2.831l-9.364-5.386 9.206-5.295a1.63 1.63 0 000-2.832l-11.575-6.66a1.64 1.64 0 00-1.638 0l-11.656 6.708c-.51.292-.822.834-.822 1.418v13.498c0 .585.312 1.122.822 1.414zm12.444-19.967l8.571 4.926-8.571 4.93-8.572-4.925 8.572-4.93zm-3.157 11.697l-6.971 4.03v-8.06l6.971 4.03zm3.157 11.696l-8.548-4.926 8.567-4.93 8.572 4.925-8.591 4.931zm28.62-16.562c.86 0 1.682.226 2.398.633a1.744 1.744 0 002.09-.287c.798-.796.658-2.147-.327-2.722a8.343 8.343 0 00-4.16-1.102c-4.594 0-8.303 3.723-8.303 8.323 0 4.58 3.733 8.323 8.302 8.323a8.397 8.397 0 004.161-1.102c.985-.57 1.13-1.922.327-2.698a1.744 1.744 0 00-2.09-.287 4.894 4.894 0 01-2.398.632c-2.666 0-4.838-2.19-4.838-4.868 0-2.66 2.172-4.844 4.838-4.844zm20.031-3.459c-.966 0-1.744.776-1.744 1.74v6.502c0 2.721-1.744 4.925-3.877 4.925-2.134 0-3.878-2.209-3.878-4.925V37.3c0-.963-.778-1.739-1.744-1.739s-1.744.776-1.744 1.74v6.502c0 4.619 3.301 8.385 7.342 8.385 4.06 0 7.341-3.761 7.341-8.385V37.3c.048-.963-.73-1.739-1.696-1.739zm29.443 0c-1.744 0-3.382.57-4.694 1.514v-4.988c0-.963-.778-1.74-1.744-1.74s-1.744.777-1.744 1.74v11.778c0 4.58 3.671 8.323 8.182 8.323 4.512 0 8.183-3.723 8.183-8.323-.019-4.562-3.69-8.304-8.183-8.304zm0 13.191c-2.604 0-4.694-2.19-4.694-4.868 0-2.678 2.114-4.868 4.694-4.868 2.605 0 4.714 2.19 4.714 4.868-.015 2.679-2.129 4.868-4.714 4.868zm11.709-13.191c-.965 0-1.744.776-1.744 1.74v13.167c0 .963.779 1.74 1.744 1.74.966 0 1.744-.777 1.744-1.74V37.3c0-.963-.778-1.739-1.744-1.739zm-29.649 0c-4.512 0-8.183 3.723-8.183 8.323 0 4.58 3.815 8.323 8.509 8.323a8.508 8.508 0 004.267-1.126c.985-.55 1.148-1.902.37-2.698-.553-.55-1.393-.694-2.071-.306a5.163 5.163 0 01-2.542.675c-2.152 0-3.978-1.308-4.713-3.129h10.825c.966 0 1.744-.776 1.744-1.739-.024-4.58-3.695-8.323-8.206-8.323zm-4.406 6.584c.677-1.821 2.397-3.13 4.406-3.13 2.008 0 3.733 1.309 4.406 3.13h-8.812zm34.055-11.754a1.739 1.739 0 100 3.479c.966 0 1.744-.777 1.744-1.74 0-.982-.778-1.74-1.744-1.74zm11.729 5.17c-4.512 0-8.183 3.723-8.183 8.323 0 4.58 3.671 8.323 8.183 8.323a8.04 8.04 0 004.713-1.533v4.988c0 .963.778 1.74 1.744 1.74s1.744-.777 1.744-1.74V43.884c-.019-4.58-3.69-8.323-8.201-8.323zm0 13.191c-2.605 0-4.714-2.19-4.714-4.868 0-2.678 2.114-4.868 4.714-4.868 2.604 0 4.713 2.19 4.713 4.868 0 2.679-2.109 4.868-4.713 4.868z" fill="#fff"/></svg>