<svg width="200" height="88" viewBox="0 0 200 88" fill="none" xmlns="http://www.w3.org/2000/svg"><path d="M74.58 47.859V35.487c0-.724-.057-2.206-.173-4.447l1.55 5.433 3.68 11.386h3.041l3.68-11.386c.054-.171.114-.364.179-.578l.08-.268c.315-1.066.736-2.595 1.262-4.587a315.81 315.81 0 00-.138 3.607c-.005.28-.007.56-.007.84V47.86h3.795V27.448h-5.693l-3.752 11.98-.912 3.274-.696-2.738-.318-1.101-3.65-11.415h-5.723v20.41h3.796zm24.601.29c2.299 0 4.018-1.03 5.157-3.086h.087c.097.975.389 1.714.877 2.216.487.502 1.243.753 2.267.753a8.713 8.713 0 001.376-.1c.193-.03.386-.069.579-.117l.652-.16v-2.201c-.29.058-.589.087-.898.087-.464 0-.794-.167-.992-.5-.198-.333-.297-.94-.297-1.818v-5.707c0-1.797-.536-3.182-1.608-4.158-1.072-.975-2.598-1.463-4.578-1.463-1.96 0-3.508.393-4.643 1.18-1.134.788-1.832 1.944-2.093 3.47l4.245.203c.086-.792.306-1.36.659-1.702.352-.343.905-.514 1.658-.514.812 0 1.396.248 1.753.746.357.497.536 1.257.536 2.281v.797l-3.375.058c-2.009.019-3.542.454-4.6 1.303-1.057.85-1.586 2.087-1.586 3.709 0 1.497.425 2.658 1.275 3.484.85.826 2.033 1.238 3.55 1.238zm1.304-2.84c-.57 0-1.026-.181-1.369-.543-.343-.362-.514-.915-.514-1.659 0-.58.103-1.043.311-1.39a1.89 1.89 0 01.906-.776c.395-.169 1.067-.272 2.013-.31l2.086-.03v.797a4.39 4.39 0 01-.449 1.948 3.544 3.544 0 01-1.239 1.442 3.098 3.098 0 01-1.745.521zm15.619 2.55v-7.693c0-1.612.283-2.83.848-3.65.565-.82 1.354-1.231 2.368-1.231.502 0 1.082.072 1.738.217v-3.404c-.318-.145-.738-.217-1.26-.217-.637 0-1.168.108-1.593.325-.425.218-.792.55-1.101 1-.309.45-.662 1.224-1.058 2.325h-.058c0-.29-.024-.876-.072-1.76-.048-.884-.087-1.412-.116-1.586h-3.882a51.111 51.111 0 01.116 3.68v11.994h4.07zm11.462.26c1.284 0 2.429-.164 3.433-.492v-2.52c-.589.135-1.043.202-1.362.202-.608 0-1.057-.181-1.347-.543-.289-.362-.434-.925-.434-1.688v-8.14h2.969v-2.753h-2.969v-3.68h-2.55l-1.275 3.68h-2.187v2.752h1.985v9.242c0 1.323.323 2.31.97 2.963.647.651 1.569.977 2.767.977zm9.912-18.76v-2.998h-4.071v2.999h4.071zm0 18.5V32.185h-4.071v15.674h4.071zm8.217 0v-8.402c0-1.323.301-2.407.905-3.252.604-.845 1.398-1.268 2.383-1.268 1.864 0 2.796 1.376 2.796 4.129v8.793h4.056v-9.952c0-1.97-.444-3.467-1.333-4.491-.888-1.024-2.163-1.535-3.824-1.535-1.149 0-2.139.27-2.97.81-.83.542-1.521 1.41-2.071 2.608h-.058c0-.3-.024-.847-.073-1.644-.048-.797-.087-1.287-.116-1.47h-3.882a47.908 47.908 0 01.116 3.506v12.168h4.071zm20.95.29c2.491 0 4.442-.723 5.852-2.166 1.41-1.444 2.115-3.436 2.115-5.976 0-2.617-.674-4.623-2.021-6.019-1.347-1.395-3.3-2.093-5.859-2.093-2.502 0-4.448.722-5.838 2.166-1.391 1.443-2.086 3.426-2.086 5.946 0 2.53.695 4.52 2.086 5.968 1.39 1.45 3.307 2.173 5.751 2.173zm-.044-2.782c-1.139 0-2.011-.456-2.614-1.369-.604-.912-.906-2.243-.906-3.99 0-3.545 1.236-5.317 3.709-5.317 1.159 0 2.042.42 2.651 1.26.608.84.912 2.192.912 4.056 0 3.573-1.25 5.36-3.752 5.36z" fill="#fff"/><path opacity=".596" d="M111.134 60.64c.309 0 .595-.05.859-.148a2.03 2.03 0 00.665-.395c.18-.165.329-.332.448-.502.119-.17.217-.345.293-.528l-.897-.28c-.111.278-.29.513-.536.706a1.334 1.334 0 01-.847.289c-.491 0-.884-.206-1.178-.616-.294-.41-.441-.968-.441-1.672 0-.694.146-1.247.437-1.66.292-.413.685-.62 1.182-.62.522 0 .945.292 1.269.874l.859-.28a2.575 2.575 0 00-.81-1.034c-.362-.279-.796-.418-1.303-.418-.785 0-1.426.282-1.922.847-.497.565-.745 1.329-.745 2.291 0 .978.252 1.747.756 2.307.504.56 1.141.84 1.911.84zm4.734 0c.304 0 .577-.05.817-.152.241-.101.435-.231.582-.391.147-.16.268-.345.364-.555a2.64 2.64 0 00.202-.62c.038-.202.057-.404.057-.607 0-.654-.172-1.206-.517-1.657-.344-.45-.846-.676-1.505-.676-.663 0-1.167.225-1.512.676-.344.451-.517 1.003-.517 1.657 0 .213.019.422.057.627.038.205.107.413.206.623.098.21.223.393.372.547.149.155.344.281.585.38.241.099.511.148.809.148zm0-.82c-.278 0-.521-.124-.729-.373-.208-.248-.312-.626-.312-1.132 0-.517.105-.898.316-1.144.21-.245.452-.368.725-.368.274 0 .515.123.722.368.208.246.312.627.312 1.144 0 .507-.104.884-.312 1.132-.207.248-.448.373-.722.373zm3.853.684v-6.21h-.957v6.21h.957zm2.903.136c.304 0 .576-.05.817-.152.241-.101.435-.231.581-.391.147-.16.269-.345.365-.555.096-.21.164-.416.202-.62.038-.202.057-.404.057-.607 0-.654-.173-1.206-.517-1.657-.345-.45-.846-.676-1.505-.676-.663 0-1.168.225-1.512.676-.345.451-.517 1.003-.517 1.657 0 .213.019.422.057.627.038.205.107.413.205.623.099.21.223.393.373.547.149.155.344.281.585.38.241.099.51.148.809.148zm0-.82c-.278 0-.522-.124-.729-.373-.208-.248-.312-.626-.312-1.132 0-.517.105-.898.315-1.144.211-.245.453-.368.726-.368.274 0 .514.123.722.368.208.246.312.627.312 1.144 0 .507-.104.884-.312 1.132-.208.248-.448.373-.722.373zm3.777.684v-2.235c0-.425.087-.766.262-1.022.175-.256.427-.383.756-.383.188 0 .378.03.57.09v-.873a1.405 1.405 0 00-.57-.099c-.248 0-.462.06-.642.182s-.318.264-.414.426v-.471h-.927v4.385h.965zm3.663.136c.552 0 .979-.125 1.28-.376.302-.25.452-.556.452-.916 0-.582-.45-1.018-1.352-1.307a11.104 11.104 0 01-.616-.213 1.113 1.113 0 01-.338-.216.446.446 0 01.023-.707c.124-.093.303-.14.536-.14.425 0 .787.205 1.086.615l.639-.387a1.864 1.864 0 00-.715-.726 1.956 1.956 0 00-1.018-.285c-.481 0-.884.117-1.208.35-.324.233-.487.542-.487.927 0 .197.036.37.107.52.071.15.175.274.311.372.137.1.268.178.392.236a4.297 4.297 0 00.558.21c.254.08.444.145.57.193.127.048.247.12.361.217a.428.428 0 01-.038.71c-.139.094-.328.14-.566.14-.486 0-.881-.222-1.185-.668l-.692.403c.177.324.432.58.764.767.332.188.71.281 1.136.281zm6.163 0c.304 0 .576-.05.817-.152.24-.101.434-.231.581-.391.147-.16.269-.345.365-.555.096-.21.163-.416.201-.62.038-.202.057-.404.057-.607 0-.654-.172-1.206-.517-1.657-.344-.45-.846-.676-1.504-.676-.664 0-1.168.225-1.512.676-.345.451-.517 1.003-.517 1.657 0 .213.019.422.057.627.038.205.106.413.205.623.099.21.223.393.372.547a1.7 1.7 0 00.586.38c.24.099.51.148.809.148zm0-.82c-.279 0-.522-.124-.73-.373-.207-.248-.311-.626-.311-1.132 0-.517.105-.898.315-1.144.21-.245.452-.368.726-.368.273 0 .514.123.722.368.207.246.311.627.311 1.144 0 .507-.104.884-.311 1.132-.208.248-.449.373-.722.373zm4.111.684V56.94h.912v-.821h-.912v-.403c0-.213.037-.367.11-.464.074-.096.189-.144.346-.144h.555v-.813h-.692c-.41 0-.728.113-.954.338-.225.225-.338.564-.338 1.015v.47h-.668v.822h.668v3.564h.973zm3.716 1.793c.38 0 .698-.091.954-.274.256-.182.465-.496.627-.942l1.816-4.962h-1.049l-.691 2.257-.281 1.01h-.031a23.447 23.447 0 00-.289-1.01l-.752-2.257h-1.056l1.641 4.278-.144.433c-.086.243-.202.414-.346.513-.144.099-.331.148-.559.148h-.136v.806h.296zm5.753-1.657c.304 0 .576-.05.817-.152.24-.101.434-.231.581-.391.147-.16.268-.345.365-.555.096-.21.163-.416.201-.62.038-.202.057-.404.057-.607 0-.654-.172-1.206-.517-1.657-.344-.45-.846-.676-1.504-.676-.664 0-1.168.225-1.513.676-.344.451-.516 1.003-.516 1.657 0 .213.019.422.057.627.038.205.106.413.205.623.099.21.223.393.372.547.15.155.345.281.585.38.241.099.511.148.81.148zm0-.82c-.279 0-.522-.124-.73-.373-.208-.248-.311-.626-.311-1.132 0-.517.105-.898.315-1.144.21-.245.452-.368.726-.368.273 0 .514.123.722.368.207.246.311.627.311 1.144 0 .507-.104.884-.311 1.132-.208.248-.449.373-.722.373zm4.232.82c.299 0 .549-.068.749-.205.2-.137.336-.284.407-.44h.007v.509h.927v-4.385h-.957v2.454c0 .34-.081.632-.243.878a.77.77 0 01-.677.369c-.481 0-.722-.342-.722-1.026v-2.675h-.965v2.796c0 .33.046.613.137.851.091.239.213.417.365.536.152.12.308.205.467.258.16.054.328.08.505.08zm4.104-.136v-2.235c0-.425.087-.766.262-1.022.175-.256.427-.383.756-.383.188 0 .378.03.57.09v-.873a1.405 1.405 0 00-.57-.099c-.248 0-.462.06-.642.182s-.318.264-.414.426v-.471h-.927v4.385h.965zm5.031 0v-6.21h-.958v6.21h.958zm2.211-5.039V54.41h-1.033v1.056h1.033zm-.038 5.038V56.12h-.95v4.385h.95zm2.44 0V56.94h.911v-.821h-.911v-.403c0-.213.036-.367.11-.464.073-.096.188-.144.345-.144h.555v-.813h-.691c-.411 0-.729.113-.954.338-.225.225-.338.564-.338 1.015v.47h-.669v.822h.669v3.564h.973zm3.366.137c.476 0 .874-.109 1.193-.327.319-.217.55-.488.692-.813l-.806-.273c-.096.187-.237.34-.422.46a1.16 1.16 0 01-.642.178c-.349 0-.624-.12-.824-.36a1.31 1.31 0 01-.301-.863h3.04a3.3 3.3 0 00.023-.388c0-.674-.187-1.22-.562-1.641a1.832 1.832 0 00-1.429-.631c-.588 0-1.075.209-1.463.627-.387.418-.581.979-.581 1.683 0 .715.194 1.284.581 1.71.388.425.888.638 1.501.638zm.973-2.675h-2.067c.005-.324.102-.606.292-.847.19-.24.445-.36.764-.36s.567.117.745.352c.177.236.266.521.266.855z" fill="#fff"/><path d="M34.754 29.906V60.17a.82.82 0 01-.392.704.777.777 0 01-.79.01l-7.162-4.09a.822.822 0 01-.41-.714V25.816c0-.29.15-.558.392-.705a.777.777 0 01.79-.01l7.162 4.09c.253.144.41.418.41.715zm11.672.002v30.265c0 .29-.15.557-.392.704a.777.777 0 01-.79.01l-7.162-4.09a.822.822 0 01-.41-.714V25.818c0-.29.15-.558.392-.705a.777.777 0 01.79-.01l7.162 4.09a.82.82 0 01.41.715zm11.672 0v30.265c0 .29-.15.557-.392.704a.777.777 0 01-.79.01l-7.162-4.09a.822.822 0 01-.41-.714V25.818c0-.29.15-.558.392-.705a.777.777 0 01.79-.01l7.162 4.09a.82.82 0 01.41.715z" fill="#fff"/></svg>