<svg width="40" height="40" fill="none" xmlns="http://www.w3.org/2000/svg"><circle cx="20" cy="20" r="20" fill="#fff"/><path d="M23.364 13.926h5.49v1.35h-5.49v-1.35zm-5.5 5.342c1.213-.589 1.848-1.484 1.848-2.868 0-2.736-2.008-3.4-4.328-3.4H9v13.735h6.563c2.46 0 4.769-1.2 4.769-3.989 0-1.724-.804-2.998-2.469-3.478zm-5.887-3.925h2.793c1.076 0 2.042.304 2.042 1.57 0 1.166-.751 1.635-1.816 1.635h-3.019v-3.205zm3.179 9.06h-3.181v-3.782h3.244c1.31 0 2.138.555 2.138 1.96 0 1.384-.988 1.822-2.201 1.822zM31 21.907c0-2.943-1.698-5.395-4.769-5.395-2.985 0-5.016 2.279-5.016 5.266 0 3.097 1.923 5.222 5.016 5.222 2.342 0 3.858-1.068 4.587-3.347h-2.374c-.259.85-1.31 1.297-2.127 1.297-1.58 0-2.405-.937-2.405-2.53h7.069c.008-.165.019-.338.019-.513zm-7.088-1.211c.085-1.308.946-2.126 2.234-2.126 1.354 0 2.03.807 2.15 2.126h-4.384z" fill="#141313"/></svg>