<svg width="20" height="20" viewBox="0 0 20 20" fill="none" xmlns="http://www.w3.org/2000/svg"><path fill-rule="evenodd" clip-rule="evenodd" d="M3.333 4.167c0-.46.374-.834.834-.834h11.666c.46 0 .834.373.834.834v11.666c0 .46-.373.834-.834.834H15a4.167 4.167 0 00-4.167-4.167H9.167A4.167 4.167 0 005 16.667h-.833a.833.833 0 01-.834-.834V4.167zm3.334 12.5h6.666a2.5 2.5 0 00-2.5-2.5H9.167a2.5 2.5 0 00-2.5 2.5zm-2.5-15a2.5 2.5 0 00-2.5 2.5v11.666a2.5 2.5 0 002.5 2.5h11.666a2.5 2.5 0 002.5-2.5V4.167a2.5 2.5 0 00-2.5-2.5H4.167zm4.166 6.666a1.667 1.667 0 103.334 0 1.667 1.667 0 00-3.334 0zM10 5a3.333 3.333 0 100 6.667A3.333 3.333 0 0010 5z" fill="#141313"/></svg>