<svg width="64" height="64" viewBox="0 0 64 64" fill="none" xmlns="http://www.w3.org/2000/svg"><path d="M12.222 46.19C9.475 43.271 8 40 8 34.695c0-9.333 6.552-17.699 16.08-21.835l2.382 3.675c-8.894 4.81-10.633 11.053-11.326 14.99 1.432-.742 3.307-1 5.144-.83 4.81.445 8.603 4.395 8.603 9.304a9.334 9.334 0 01-9.334 9.333c-2.86 0-5.597-1.306-7.327-3.144zm26.666 0c-2.746-2.918-4.221-6.19-4.221-11.494 0-9.333 6.552-17.699 16.08-21.835l2.381 3.675c-8.893 4.81-10.632 11.053-11.325 14.99 1.432-.742 3.306-1 5.144-.83 4.81.445 8.6 4.395 8.6 9.304a9.334 9.334 0 01-9.333 9.333c-2.862 0-5.598-1.306-7.328-3.144h.002z" fill="#fff" opacity=".2"/></svg>