<svg width="40" height="40" fill="none" xmlns="http://www.w3.org/2000/svg"><circle cx="20" cy="20" r="20" fill="#fff"/><path d="M28.66 14.98a9.932 9.932 0 00-3.641-3.64C23.486 10.447 21.813 10 20 10c-1.813 0-3.486.447-5.02 1.34a9.929 9.929 0 00-3.64 3.64C10.447 16.513 10 18.187 10 20c0 1.813.446 3.487 1.34 5.02a9.924 9.924 0 003.641 3.64C16.514 29.553 18.187 30 20 30c1.813 0 3.486-.447 5.02-1.34a9.932 9.932 0 003.641-3.64C29.554 23.487 30 21.813 30 20c0-1.813-.446-3.487-1.34-5.02zM20 11.66c2 0 3.772.64 5.32 1.919-.92 1.174-2.286 2.14-4.1 2.9-1.002-1.813-2.088-3.327-3.261-4.54A7.715 7.715 0 0120 11.66zm-6.49 3.14a8.116 8.116 0 012.711-2.22c1.212 1.201 2.325 2.7 3.34 4.5-2 .6-4.114.9-6.341.9-.573 0-1.006-.013-1.3-.04a8.549 8.549 0 011.59-3.14zM11.66 20c0-.054.003-.12.01-.2.007-.08.01-.146.01-.2.254.014.641.02 1.161.02 2.666 0 5.146-.367 7.439-1.1.187.373.381.793.58 1.26-1.32.293-2.674 1.006-4.061 2.14-1.387 1.134-2.399 2.327-3.039 3.58-1.4-1.587-2.1-3.42-2.1-5.5zM20 28.34c-1.894 0-3.594-.587-5.101-1.759.601-1.187 1.524-2.322 2.771-3.401 1.246-1.08 2.483-1.753 3.71-2.02a29.441 29.441 0 011.56 6.62 8.166 8.166 0 01-2.94.56zm7.08-3.96a8.351 8.351 0 01-2.58 2.621c-.24-2.08-.7-4.107-1.379-6.081.932-.066 1.765-.1 2.5-.1.799 0 1.686.034 2.659.1a8.098 8.098 0 01-1.2 3.46zm-1.24-5c-1.16 0-2.233.047-3.22.14a27.053 27.053 0 00-.68-1.62c2.066-.906 3.532-2.006 4.399-3.3 1.2 1.414 1.854 3.027 1.96 4.84-.812-.04-1.632-.06-2.459-.06z" fill="#141313"/></svg>