<svg width="20" height="20" viewBox="0 0 20 20" fill="none" xmlns="http://www.w3.org/2000/svg"><path fill-rule="evenodd" clip-rule="evenodd" d="M4.167 3.333a2.5 2.5 0 00-2.5 2.5v8.334a2.5 2.5 0 002.5 2.5h11.666a2.5 2.5 0 002.5-2.5V5.833a2.5 2.5 0 00-2.5-2.5H4.167zM3.41 5.485A.833.833 0 014.167 5h11.666c.336 0 .626.199.758.485l-6.08 4.728a.833.833 0 01-1.023 0L3.41 5.485zm-.077 2.052v4.85l3.01-2.508-3.01-2.342zm.07 6.962a.832.832 0 00.764.501h11.666a.833.833 0 00.765-.5l-4.288-3.574-.775.603a2.5 2.5 0 01-3.07 0l-.774-.603L3.403 14.5zm13.264-2.112v-4.85l-3.01 2.342 3.01 2.508z" fill="#141313"/></svg>