<svg xmlns="http://www.w3.org/2000/svg" xmlns:xlink="http://www.w3.org/1999/xlink" xmlns:svgjs="http://svgjs.com/svgjs" width="100" height="100"><svg width="100" height="100" viewBox="0 0 100 100" fill="none" xmlns="http://www.w3.org/2000/svg"><path fill="#141313" d="M0 0h100v100H0z"/><path d="M39.644 86c-5.344 0-9.303-1.052-11.878-3.155C25.256 80.742 24 78.047 24 74.761c0-2.038.644-3.813 1.931-5.324 1.288-1.578 3.155-2.367 5.601-2.367 2.06 0 3.734.625 5.022 1.874 1.352 1.248 2.027 2.826 2.027 4.732 0 1.315-.225 2.432-.675 3.352-.451.92-1.03 1.578-1.739 1.972v.493c.515.131 1.03.23 1.545.296.58.066 1.127.098 1.642.098 2.382 0 4.185-.755 5.408-2.267 1.223-1.512 1.835-4.108 1.835-7.789V22.507h-9.174V16H69v6.507h-6.76v42.099c0 3.155-.418 6.047-1.255 8.676-.773 2.629-2.06 4.896-3.863 6.803-1.802 1.84-4.152 3.286-7.049 4.338C47.24 85.474 43.763 86 39.643 86z" fill="#fff"/></svg><style>@media (prefers-color-scheme:light){:root{filter:none}}</style></svg>