<svg width="57" height="26" fill="none" xmlns="http://www.w3.org/2000/svg"><path d="M5.86 23.3c-1.66 0-2.89-.32-3.69-.96C1.39 21.7 1 20.88 1 19.88c0-.62.2-1.16.6-1.62.4-.48.98-.72 1.74-.72.64 0 1.16.19 1.56.57.42.38.63.86.63 1.44 0 .4-.07.74-.21 1.02-.14.28-.32.48-.54.6v.15a4.048 4.048 0 00.99.12c.74 0 1.3-.23 1.68-.69.38-.46.57-1.25.57-2.37V3.98H5.17V2h9.81v1.98h-2.1v12.81c0 .96-.13 1.84-.39 2.64a5 5 0 01-1.2 2.07c-.56.56-1.29 1-2.19 1.32-.88.32-1.96.48-3.24.48zm15.894 0c-1.7 0-2.94-.39-3.72-1.17-.76-.8-1.14-1.91-1.14-3.33 0-3.1 2.29-4.65 6.87-4.65h2.1v-1.71c0-1.22-.23-2.14-.69-2.76-.46-.62-1.26-.93-2.4-.93-.42 0-.78.03-1.08.09-.3.06-.56.14-.78.24v.15c.2.1.39.28.57.54.2.26.3.61.3 1.05 0 .6-.19 1.11-.57 1.53-.38.4-.95.6-1.71.6-.6 0-1.1-.21-1.5-.63-.4-.42-.6-.95-.6-1.59 0-.48.14-.95.42-1.41.28-.48.7-.9 1.26-1.26s1.25-.65 2.07-.87c.84-.22 1.8-.33 2.88-.33 2.18 0 3.79.47 4.83 1.41 1.04.92 1.56 2.23 1.56 3.93v8.76h1.8v1.71c-.34.2-.78.35-1.32.45-.54.12-1.1.18-1.68.18-1.1 0-1.88-.25-2.34-.75-.44-.52-.66-1.16-.66-1.92v-.06h-.18c-.14.34-.32.67-.54.99-.2.32-.47.61-.81.87-.32.26-.72.47-1.2.63-.48.16-1.06.24-1.74.24zm1.71-2.7c.74 0 1.32-.17 1.74-.51.44-.34.66-.93.66-1.77v-2.37h-1.62c-.96 0-1.68.2-2.16.6-.46.4-.69.97-.69 1.71v.48c0 .64.19 1.11.57 1.41.38.3.88.45 1.5.45zm18.398 2.7c-1.26 0-2.37-.21-3.33-.63-.94-.42-1.74-1-2.4-1.74a7.76 7.76 0 01-1.47-2.61c-.32-1-.48-2.09-.48-3.27 0-1.32.21-2.48.63-3.48.42-1.02.99-1.88 1.71-2.58.74-.7 1.6-1.23 2.58-1.59 1-.36 2.07-.54 3.21-.54 1.84 0 3.25.38 4.23 1.14 1 .76 1.5 1.72 1.5 2.88 0 .76-.21 1.37-.63 1.83-.42.44-1 .66-1.74.66s-1.31-.19-1.71-.57c-.4-.4-.6-.92-.6-1.56 0-.52.13-.95.39-1.29.28-.34.59-.59.93-.75v-.18c-.2-.06-.44-.12-.72-.18-.26-.06-.62-.09-1.08-.09-1.22 0-2.17.39-2.85 1.17-.68.76-1.02 1.86-1.02 3.3v3.12c0 1.32.31 2.33.93 3.03.62.68 1.48 1.02 2.58 1.02 1.12 0 2.01-.26 2.67-.78.66-.52 1.13-1.13 1.41-1.83l1.68.99c-.18.5-.44 1.02-.78 1.56-.32.54-.74 1.03-1.26 1.47-.52.44-1.14.8-1.86 1.08-.72.28-1.56.42-2.52.42zm11.465 0c-.88 0-1.55-.25-2.01-.75-.46-.52-.69-1.14-.69-1.86v-.12c0-.72.23-1.33.69-1.83.46-.52 1.13-.78 2.01-.78.88 0 1.55.26 2.01.78.46.5.69 1.11.69 1.83v.12c0 .72-.23 1.34-.69 1.86-.46.5-1.13.75-2.01.75z" fill="#fff"/></svg>