<svg width="41" height="41" fill="none" xmlns="http://www.w3.org/2000/svg"><circle cx="20.315" cy="20.243" r="20" fill="#fff"/><path d="M21.824 23.517a6.975 6.975 0 002.165-.897 1.093 1.093 0 00-1.164-1.85 4.734 4.734 0 01-5.02 0 1.093 1.093 0 00-1.164 1.85 6.975 6.975 0 002.165.897L16.724 25.6a1.09 1.09 0 101.544 1.544l2.048-2.048 2.048 2.048a1.09 1.09 0 101.544-1.544l-2.084-2.084zm-1.508-8.31c.852 0 1.544.691 1.544 1.543a1.545 1.545 0 01-3.088 0c0-.852.694-1.544 1.544-1.544zm0 5.269a3.731 3.731 0 003.728-3.726 3.732 3.732 0 00-3.728-3.73 3.731 3.731 0 00-3.727 3.728 3.731 3.731 0 003.727 3.728z" fill="#141313"/></svg>