<svg width="32" height="32" viewBox="0 0 32 32" fill="none" xmlns="http://www.w3.org/2000/svg"><circle cx="16" cy="16" r="16" fill="#141313" fill-opacity=".05"/><path fill-rule="evenodd" clip-rule="evenodd" d="M10.433 10.004a3.871 3.871 0 113.493 6.534l2.138 2.138a3.871 3.871 0 111.38 3.78l-.016.017-.304-.304-6.69-6.691-.305-.304.017-.017a3.872 3.872 0 01.287-5.153zm7.908 10.948a2.15 2.15 0 103.041-3.04 2.15 2.15 0 00-3.041 3.04zm-3.65-6.69a2.15 2.15 0 11-3.041-3.042 2.15 2.15 0 013.041 3.041z" fill="#141313"/></svg>