<svg width="20" height="20" viewBox="0 0 20 20" fill="none" xmlns="http://www.w3.org/2000/svg">
<path fill-rule="evenodd" clip-rule="evenodd" d="M3.33341 4.16663C3.33341 3.70639 3.70651 3.33329 4.16675 3.33329H15.8334C16.2937 3.33329 16.6667 3.70639 16.6667 4.16663V15.8333C16.6667 16.2935 16.2937 16.6666 15.8334 16.6666L15.0001 16.6666C15.0001 14.3654 13.1346 12.5 10.8334 12.5H9.16675C6.86556 12.5 5.00008 14.3654 5.00008 16.6666L4.16675 16.6666C3.70651 16.6666 3.33341 16.2935 3.33341 15.8333V4.16663ZM6.66675 16.6666H13.3334C13.3334 15.2859 12.2141 14.1666 10.8334 14.1666H9.16675C7.78604 14.1666 6.66675 15.2859 6.66675 16.6666ZM4.16675 1.66663C2.78604 1.66663 1.66675 2.78591 1.66675 4.16663V15.8333C1.66675 17.214 2.78604 18.3333 4.16675 18.3333H15.8334C17.2141 18.3333 18.3334 17.214 18.3334 15.8333V4.16663C18.3334 2.78591 17.2141 1.66663 15.8334 1.66663H4.16675ZM8.33341 8.33329C8.33341 9.25377 9.07961 9.99996 10.0001 9.99996C10.9206 9.99996 11.6667 9.25377 11.6667 8.33329C11.6667 7.41282 10.9206 6.66663 10.0001 6.66663C9.07961 6.66663 8.33341 7.41282 8.33341 8.33329ZM10.0001 4.99996C8.15913 4.99996 6.66675 6.49234 6.66675 8.33329C6.66675 10.1742 8.15913 11.6666 10.0001 11.6666C11.841 11.6666 13.3334 10.1742 13.3334 8.33329C13.3334 6.49234 11.841 4.99996 10.0001 4.99996Z" fill="#141313"/>
</svg>
