<svg width="20" height="20" viewBox="0 0 20 20" fill="none" xmlns="http://www.w3.org/2000/svg">
<path fill-rule="evenodd" clip-rule="evenodd" d="M4.16675 3.33337C2.78604 3.33337 1.66675 4.45266 1.66675 5.83337V14.1667C1.66675 15.5474 2.78604 16.6667 4.16675 16.6667H15.8334C17.2141 16.6667 18.3334 15.5474 18.3334 14.1667V5.83337C18.3334 4.45266 17.2141 3.33337 15.8334 3.33337H4.16675ZM3.40951 5.48499C3.54143 5.19873 3.83088 5.00004 4.16675 5.00004H15.8334C16.1693 5.00004 16.4587 5.19873 16.5907 5.48499L10.5117 10.2131C10.2108 10.4471 9.78939 10.4471 9.48846 10.2131L3.40951 5.48499ZM3.33341 7.53724V12.3875L6.34392 9.87875L3.33341 7.53724ZM3.4025 14.4994C3.53096 14.7941 3.8248 15 4.16675 15H15.8334C16.1754 15 16.4692 14.7941 16.5977 14.4994L12.3096 10.9261L11.5349 11.5287C10.6322 12.2308 9.36801 12.2308 8.46523 11.5287L7.69052 10.9261L3.4025 14.4994ZM16.6667 12.3875V7.53724L13.6562 9.87875L16.6667 12.3875Z" fill="#141313"/>
</svg>
