<svg xmlns="http://www.w3.org/2000/svg" version="1.1" xmlns:xlink="http://www.w3.org/1999/xlink" xmlns:svgjs="http://svgjs.com/svgjs" width="100" height="100"><svg width="100" height="100" viewBox="0 0 100 100" fill="none" xmlns="http://www.w3.org/2000/svg">
<rect width="100" height="100" fill="#141313"></rect>
<path d="M39.6438 86C34.3004 86 30.3412 84.9484 27.7661 82.8451C25.2554 80.7418 24 78.0469 24 74.7606C24 72.723 24.6438 70.9484 25.9313 69.4366C27.2189 67.8592 29.0858 67.0704 31.5322 67.0704C33.5923 67.0704 35.2661 67.6948 36.5536 68.9437C37.9056 70.1925 38.5815 71.77 38.5815 73.6761C38.5815 74.9906 38.3562 76.108 37.9056 77.0282C37.4549 77.9484 36.8755 78.6056 36.1674 79V79.493C36.6824 79.6244 37.1974 79.723 37.7124 79.7887C38.2918 79.8545 38.8391 79.8873 39.3541 79.8873C41.7361 79.8873 43.5386 79.1315 44.7618 77.6197C45.985 76.108 46.5966 73.5117 46.5966 69.831V22.507H37.4227V16H69V22.507H62.2403V64.6056C62.2403 67.7606 61.8219 70.6526 60.985 73.2817C60.2124 75.9108 58.9249 78.1784 57.1223 80.0845C55.3197 81.9249 52.97 83.3709 50.073 84.4225C47.2403 85.4742 43.7639 86 39.6438 86Z" fill="white"></path>
</svg><style>@media (prefers-color-scheme: light) { :root { filter: none; } }
</style></svg>