<svg width="40" height="40" viewBox="0 0 40 40" fill="none" xmlns="http://www.w3.org/2000/svg">
<circle cx="20" cy="20" r="20" fill="white"/>
<path d="M13.2996 10.0615C14.4696 10.0615 15.4219 11.0153 15.4219 12.1871C15.4219 13.359 14.4696 14.3128 13.2996 14.3128C12.1228 14.3128 11.1772 13.359 11.1772 12.1871C11.1772 11.0153 12.1228 10.0615 13.2996 10.0615Z" fill="#141313"/>
<path d="M11.4628 15.9206H15.1225V27.7069H11.4628V15.9206Z" fill="#141313"/>
<path d="M20.9252 15.9206H17.4287V27.7069H21.0816V21.8751C21.0816 20.3422 21.3673 18.8502 23.272 18.8502C25.1494 18.8502 25.1699 20.6079 25.1699 21.9773V27.7069H28.8227V21.2483C28.8227 18.0735 28.1357 15.6345 24.4352 15.6345C22.653 15.6345 21.4626 16.6087 20.9728 17.5353H20.9252V15.9206Z" fill="#141313"/>
</svg>
