<svg width="57" height="26" viewBox="0 0 57 26" fill="none" xmlns="http://www.w3.org/2000/svg">
<path d="M5.86 23.3C4.2 23.3 2.97 22.98 2.17 22.34C1.39 21.7 1 20.88 1 19.88C1 19.26 1.2 18.72 1.6 18.26C2 17.78 2.58 17.54 3.34 17.54C3.98 17.54 4.5 17.73 4.9 18.11C5.32 18.49 5.53 18.97 5.53 19.55C5.53 19.95 5.46 20.29 5.32 20.57C5.18 20.85 5 21.05 4.78 21.17V21.32C4.94 21.36 5.1 21.39 5.26 21.41C5.44 21.43 5.61 21.44 5.77 21.44C6.51 21.44 7.07 21.21 7.45 20.75C7.83 20.29 8.02 19.5 8.02 18.38V3.98H5.17V2H14.98V3.98H12.88V16.79C12.88 17.75 12.75 18.63 12.49 19.43C12.25 20.23 11.85 20.92 11.29 21.5C10.73 22.06 10 22.5 9.1 22.82C8.22 23.14 7.14 23.3 5.86 23.3Z" fill="white"/>
<path d="M21.7537 23.3C20.0537 23.3 18.8137 22.91 18.0337 22.13C17.2737 21.33 16.8937 20.22 16.8937 18.8C16.8937 15.7 19.1837 14.15 23.7637 14.15H25.8637V12.44C25.8637 11.22 25.6337 10.3 25.1737 9.68C24.7137 9.06 23.9137 8.75 22.7737 8.75C22.3537 8.75 21.9937 8.78 21.6937 8.84C21.3937 8.9 21.1337 8.98 20.9137 9.08V9.23C21.1137 9.33 21.3037 9.51 21.4837 9.77C21.6837 10.03 21.7837 10.38 21.7837 10.82C21.7837 11.42 21.5937 11.93 21.2137 12.35C20.8337 12.75 20.2637 12.95 19.5037 12.95C18.9037 12.95 18.4037 12.74 18.0037 12.32C17.6037 11.9 17.4037 11.37 17.4037 10.73C17.4037 10.25 17.5437 9.78 17.8237 9.32C18.1037 8.84 18.5237 8.42 19.0837 8.06C19.6437 7.7 20.3337 7.41 21.1537 7.19C21.9937 6.97 22.9537 6.86 24.0337 6.86C26.2137 6.86 27.8237 7.33 28.8637 8.27C29.9037 9.19 30.4237 10.5 30.4237 12.2V20.96H32.2237V22.67C31.8837 22.87 31.4437 23.02 30.9037 23.12C30.3637 23.24 29.8037 23.3 29.2237 23.3C28.1237 23.3 27.3437 23.05 26.8837 22.55C26.4437 22.03 26.2237 21.39 26.2237 20.63V20.57H26.0437C25.9037 20.91 25.7237 21.24 25.5037 21.56C25.3037 21.88 25.0337 22.17 24.6937 22.43C24.3737 22.69 23.9737 22.9 23.4937 23.06C23.0137 23.22 22.4337 23.3 21.7537 23.3ZM23.4637 20.6C24.2037 20.6 24.7837 20.43 25.2037 20.09C25.6437 19.75 25.8637 19.16 25.8637 18.32V15.95H24.2437C23.2837 15.95 22.5637 16.15 22.0837 16.55C21.6237 16.95 21.3937 17.52 21.3937 18.26V18.74C21.3937 19.38 21.5837 19.85 21.9637 20.15C22.3437 20.45 22.8437 20.6 23.4637 20.6Z" fill="white"/>
<path d="M41.8623 23.3C40.6023 23.3 39.4923 23.09 38.5323 22.67C37.5923 22.25 36.7923 21.67 36.1323 20.93C35.4923 20.19 35.0023 19.32 34.6623 18.32C34.3423 17.32 34.1823 16.23 34.1823 15.05C34.1823 13.73 34.3923 12.57 34.8123 11.57C35.2323 10.55 35.8023 9.69 36.5223 8.99C37.2623 8.29 38.1223 7.76 39.1023 7.4C40.1023 7.04 41.1723 6.86 42.3123 6.86C44.1523 6.86 45.5623 7.24 46.5423 8C47.5423 8.76 48.0423 9.72 48.0423 10.88C48.0423 11.64 47.8323 12.25 47.4123 12.71C46.9923 13.15 46.4123 13.37 45.6723 13.37C44.9323 13.37 44.3623 13.18 43.9623 12.8C43.5623 12.4 43.3623 11.88 43.3623 11.24C43.3623 10.72 43.4923 10.29 43.7523 9.95C44.0323 9.61 44.3423 9.36 44.6823 9.2V9.02C44.4823 8.96 44.2423 8.9 43.9623 8.84C43.7023 8.78 43.3423 8.75 42.8823 8.75C41.6623 8.75 40.7123 9.14 40.0323 9.92C39.3523 10.68 39.0123 11.78 39.0123 13.22V16.34C39.0123 17.66 39.3223 18.67 39.9423 19.37C40.5623 20.05 41.4223 20.39 42.5223 20.39C43.6423 20.39 44.5323 20.13 45.1923 19.61C45.8523 19.09 46.3223 18.48 46.6023 17.78L48.2823 18.77C48.1023 19.27 47.8423 19.79 47.5023 20.33C47.1823 20.87 46.7623 21.36 46.2423 21.8C45.7223 22.24 45.1023 22.6 44.3823 22.88C43.6623 23.16 42.8223 23.3 41.8623 23.3Z" fill="white"/>
<path d="M53.327 23.3C52.447 23.3 51.777 23.05 51.317 22.55C50.857 22.03 50.627 21.41 50.627 20.69V20.57C50.627 19.85 50.857 19.24 51.317 18.74C51.777 18.22 52.447 17.96 53.327 17.96C54.207 17.96 54.877 18.22 55.337 18.74C55.797 19.24 56.027 19.85 56.027 20.57V20.69C56.027 21.41 55.797 22.03 55.337 22.55C54.877 23.05 54.207 23.3 53.327 23.3Z" fill="white"/>
</svg>
