<svg width="41" height="41" viewBox="0 0 41 41" fill="none" xmlns="http://www.w3.org/2000/svg">
<circle cx="20.3149" cy="20.2429" r="20" fill="white"/>
<path d="M21.8244 23.5169C22.5842 23.3439 23.3158 23.043 23.9891 22.6198C24.4988 22.2982 24.653 21.625 24.3314 21.1134C24.0098 20.6018 23.3365 20.4476 22.8249 20.7692C21.2978 21.7303 19.3324 21.7284 17.8053 20.7692C17.2938 20.4476 16.6205 20.6018 16.2989 21.1134C15.9773 21.6231 16.1315 22.2982 16.6411 22.6198C17.3144 23.043 18.046 23.3439 18.8058 23.5169L16.7239 25.6008C16.297 26.0277 16.297 26.7179 16.7239 27.1448C16.9383 27.3574 17.2166 27.4646 17.495 27.4646C17.7752 27.4646 18.0536 27.3574 18.268 27.1448L20.3161 25.0967L22.3642 27.1448C22.7911 27.5718 23.4813 27.5718 23.9082 27.1448C24.3351 26.7179 24.3351 26.0258 23.9082 25.6008L21.8244 23.5169ZM20.3161 15.2061C21.168 15.2061 21.8601 15.8982 21.8601 16.7501C21.8601 17.6002 21.168 18.2923 20.3161 18.2923C19.466 18.2923 18.772 17.6002 18.772 16.7501C18.772 15.8982 19.466 15.2061 20.3161 15.2061ZM20.3161 20.4758C22.3717 20.4758 24.0436 18.8039 24.0436 16.7501C24.0436 14.6926 22.3717 13.0207 20.3161 13.0207C18.2604 13.0207 16.5885 14.6926 16.5885 16.7483C16.5885 18.8039 18.2604 20.4758 20.3161 20.4758Z" fill="#141313"/>
</svg>
