<svg width="20" height="20" viewBox="0 0 20 20" fill="none" xmlns="http://www.w3.org/2000/svg">
<path fill-rule="evenodd" clip-rule="evenodd" d="M13.5845 9.87934L10.0001 15.7917L6.41569 9.87934C4.67716 7.01168 6.69711 3.30905 10.0001 3.30905C13.3031 3.30905 15.323 7.01168 13.5845 9.87934ZM5.04806 10.7438C2.64618 6.78201 5.43685 1.66663 10.0001 1.66663C14.5633 1.66663 17.354 6.78201 14.9521 10.7438L10.5357 18.0287C10.2894 18.4348 9.71076 18.4348 9.46451 18.0287L5.04806 10.7438ZM10.0002 5.77268C9.1119 5.77268 8.39176 6.50802 8.39176 7.41511C8.39176 8.32219 9.1119 9.05753 10.0002 9.05753C10.8886 9.05753 11.6087 8.32219 11.6087 7.41511C11.6087 6.50802 10.8886 5.77268 10.0002 5.77268Z" fill="black"/>
</svg>
