<svg width="20" height="20" viewBox="0 0 20 20" fill="none" xmlns="http://www.w3.org/2000/svg">
<path fill-rule="evenodd" clip-rule="evenodd" d="M3.91735 3.91736C5.42906 2.40566 7.88002 2.40566 9.39173 3.91736C10.9034 5.42907 10.9034 7.88003 9.39173 9.39174C8.82904 9.95443 8.13622 10.3077 7.41014 10.4515L9.54852 12.5899C9.69232 11.8638 10.0456 11.171 10.6083 10.6083C12.12 9.09656 14.5709 9.09656 16.0826 10.6083C17.5943 12.12 17.5943 14.5709 16.0826 16.0826C14.6737 17.4915 12.449 17.5874 10.9291 16.3701L10.9124 16.3868L10.6083 16.0826L3.91735 9.39174L3.61322 9.08761L3.62993 9.0709C2.41264 7.55103 2.50845 5.32627 3.91735 3.91736ZM11.8248 14.8661C12.6646 15.7059 14.0263 15.7059 14.8661 14.8661C15.7059 14.0263 15.7059 12.6646 14.8661 11.8248C14.0263 10.985 12.6646 10.985 11.8248 11.8248C10.9849 12.6646 10.9849 14.0263 11.8248 14.8661ZM8.1752 8.17521C7.33536 9.01505 5.97372 9.01505 5.13388 8.17521C4.29404 7.33537 4.29404 5.97373 5.13388 5.13389C5.97372 4.29405 7.33536 4.29405 8.1752 5.13389C9.01504 5.97373 9.01504 7.33537 8.1752 8.17521Z" fill="#141313"/>
</svg>
